<mxfile host="app.diagrams.net" agent="Mozilla/5.0 (Macintosh; Intel Mac OS X 10_15_7) AppleWebKit/605.1.15 (KHTML, like Gecko) Version/18.2 Safari/605.1.15" version="26.0.10">
  <diagram name="Page-1" id="yJ1JHOEbkFGyUQX62pq3">
    <mxGraphModel dx="2868" dy="2754" grid="1" gridSize="10" guides="1" tooltips="1" connect="1" arrows="1" fold="1" page="1" pageScale="1" pageWidth="850" pageHeight="1100" math="0" shadow="0">
      <root>
        <mxCell id="0" />
        <mxCell id="1" parent="0" />
        <mxCell id="_accsSYRUymLjPcQeyw_-4" value="&lt;hr&gt;" style="rounded=0;whiteSpace=wrap;html=1;glass=0;dashed=1;dashPattern=8 8;fontStyle=1" parent="1" vertex="1">
          <mxGeometry x="100" y="340" width="540" height="410" as="geometry" />
        </mxCell>
        <mxCell id="OVW3ecKFrReb0WnxIGpc-1" value="" style="image;aspect=fixed;html=1;points=[];align=center;fontSize=12;image=img/lib/azure2/networking/Virtual_Networks.svg;" vertex="1" parent="1">
          <mxGeometry x="110" y="320" width="67" height="40" as="geometry" />
        </mxCell>
        <mxCell id="OVW3ecKFrReb0WnxIGpc-3" value="" style="image;sketch=0;aspect=fixed;html=1;points=[];align=center;fontSize=12;image=img/lib/mscae/Blog_Storage.svg;" vertex="1" parent="1">
          <mxGeometry x="440" y="840" width="78.89" height="72.58" as="geometry" />
        </mxCell>
        <mxCell id="OVW3ecKFrReb0WnxIGpc-4" value="" style="image;aspect=fixed;html=1;points=[];align=center;fontSize=12;image=img/lib/azure2/networking/Application_Gateways.svg;rotation=90;" vertex="1" parent="1">
          <mxGeometry x="540" y="530" width="64" height="64" as="geometry" />
        </mxCell>
        <mxCell id="OVW3ecKFrReb0WnxIGpc-5" value="" style="image;aspect=fixed;html=1;points=[];align=center;fontSize=12;image=img/lib/azure2/databases/SQL_Database.svg;" vertex="1" parent="1">
          <mxGeometry x="223.5" y="827.42" width="65.06" height="86.75" as="geometry" />
        </mxCell>
        <mxCell id="OVW3ecKFrReb0WnxIGpc-6" value="" style="image;aspect=fixed;html=1;points=[];align=center;fontSize=12;image=img/lib/azure2/management_governance/Monitor.svg;" vertex="1" parent="1">
          <mxGeometry x="490" y="233" width="84" height="84" as="geometry" />
        </mxCell>
        <mxCell id="OVW3ecKFrReb0WnxIGpc-34" style="edgeStyle=orthogonalEdgeStyle;rounded=0;orthogonalLoop=1;jettySize=auto;html=1;exitX=0;exitY=0.5;exitDx=0;exitDy=0;exitPerimeter=0;entryX=0.52;entryY=0.002;entryDx=0;entryDy=0;entryPerimeter=0;curved=1;" edge="1" parent="1" source="OVW3ecKFrReb0WnxIGpc-8" target="OVW3ecKFrReb0WnxIGpc-4">
          <mxGeometry relative="1" as="geometry">
            <mxPoint x="970" y="170" as="targetPoint" />
          </mxGeometry>
        </mxCell>
        <mxCell id="OVW3ecKFrReb0WnxIGpc-8" value="" style="verticalLabelPosition=bottom;html=1;verticalAlign=top;align=center;strokeColor=none;fillColor=#00BEF2;shape=mxgraph.azure.traffic_manager;pointerEvents=1;" vertex="1" parent="1">
          <mxGeometry x="1220" y="-40" width="50" height="50" as="geometry" />
        </mxCell>
        <mxCell id="OVW3ecKFrReb0WnxIGpc-19" value="&lt;font style=&quot;font-size: 18px;&quot;&gt;Frontend - Spoke&lt;/font&gt;" style="text;html=1;align=center;verticalAlign=middle;resizable=0;points=[];autosize=1;strokeColor=none;fillColor=none;" vertex="1" parent="1">
          <mxGeometry x="63.5" y="287" width="160" height="30" as="geometry" />
        </mxCell>
        <mxCell id="OVW3ecKFrReb0WnxIGpc-58" style="edgeStyle=orthogonalEdgeStyle;rounded=0;orthogonalLoop=1;jettySize=auto;html=1;entryX=0;entryY=0.5;entryDx=0;entryDy=0;curved=1;exitX=1;exitY=0.5;exitDx=0;exitDy=0;" edge="1" parent="1" source="OVW3ecKFrReb0WnxIGpc-27" target="OVW3ecKFrReb0WnxIGpc-59">
          <mxGeometry relative="1" as="geometry">
            <mxPoint x="1088" y="662" as="sourcePoint" />
          </mxGeometry>
        </mxCell>
        <mxCell id="OVW3ecKFrReb0WnxIGpc-27" value="&lt;hr&gt;" style="rounded=0;whiteSpace=wrap;html=1;glass=0;dashed=1;dashPattern=8 8;fontStyle=1" vertex="1" parent="1">
          <mxGeometry x="965" y="380" width="190" height="793" as="geometry" />
        </mxCell>
        <mxCell id="OVW3ecKFrReb0WnxIGpc-30" value="" style="whiteSpace=wrap;html=1;aspect=fixed;fillColor=#f5f5f5;fontColor=#333333;strokeColor=#666666;" vertex="1" parent="1">
          <mxGeometry x="210" y="380" width="300" height="300" as="geometry" />
        </mxCell>
        <mxCell id="OVW3ecKFrReb0WnxIGpc-28" value="" style="image;sketch=0;aspect=fixed;html=1;points=[];align=center;fontSize=12;image=img/lib/mscae/Azure_Firewall.svg;" vertex="1" parent="1">
          <mxGeometry x="1025" y="650" width="80" height="80" as="geometry" />
        </mxCell>
        <mxCell id="OVW3ecKFrReb0WnxIGpc-29" value="" style="image;sketch=0;aspect=fixed;html=1;points=[];align=center;fontSize=12;image=img/lib/mscae/VPN_Gateway.svg;" vertex="1" parent="1">
          <mxGeometry x="1032.5" y="890" width="68" height="75.56" as="geometry" />
        </mxCell>
        <mxCell id="OVW3ecKFrReb0WnxIGpc-2" value="" style="image;aspect=fixed;html=1;points=[];align=center;fontSize=12;image=img/lib/azure2/compute/VM_Scale_Sets.svg;" vertex="1" parent="1">
          <mxGeometry x="270" y="420" width="103" height="103" as="geometry" />
        </mxCell>
        <mxCell id="OVW3ecKFrReb0WnxIGpc-18" style="edgeStyle=orthogonalEdgeStyle;rounded=0;orthogonalLoop=1;jettySize=auto;html=1;entryX=0.998;entryY=0.532;entryDx=0;entryDy=0;entryPerimeter=0;" edge="1" parent="1" source="OVW3ecKFrReb0WnxIGpc-6" target="OVW3ecKFrReb0WnxIGpc-2">
          <mxGeometry relative="1" as="geometry" />
        </mxCell>
        <mxCell id="OVW3ecKFrReb0WnxIGpc-13" style="edgeStyle=orthogonalEdgeStyle;rounded=0;orthogonalLoop=1;jettySize=auto;html=1;" edge="1" parent="1" source="OVW3ecKFrReb0WnxIGpc-4" target="OVW3ecKFrReb0WnxIGpc-2">
          <mxGeometry relative="1" as="geometry" />
        </mxCell>
        <mxCell id="OVW3ecKFrReb0WnxIGpc-22" value="" style="image;aspect=fixed;html=1;points=[];align=center;fontSize=12;image=img/lib/azure2/networking/Network_Security_Groups.svg;" vertex="1" parent="1">
          <mxGeometry x="190" y="650" width="37.06" height="45" as="geometry" />
        </mxCell>
        <mxCell id="OVW3ecKFrReb0WnxIGpc-14" value="" style="image;aspect=fixed;html=1;points=[];align=center;fontSize=12;image=img/lib/azure2/other/Private_Endpoints.svg;" vertex="1" parent="1">
          <mxGeometry x="293.46" y="610" width="56.08" height="53.34" as="geometry" />
        </mxCell>
        <mxCell id="OVW3ecKFrReb0WnxIGpc-31" value="" style="image;aspect=fixed;html=1;points=[];align=center;fontSize=12;image=img/lib/azure2/other/Private_Endpoints.svg;" vertex="1" parent="1">
          <mxGeometry x="373" y="612.33" width="56.08" height="53.34" as="geometry" />
        </mxCell>
        <mxCell id="OVW3ecKFrReb0WnxIGpc-32" style="edgeStyle=orthogonalEdgeStyle;rounded=0;orthogonalLoop=1;jettySize=auto;html=1;entryX=0.656;entryY=0.156;entryDx=0;entryDy=0;entryPerimeter=0;" edge="1" parent="1" source="OVW3ecKFrReb0WnxIGpc-14" target="OVW3ecKFrReb0WnxIGpc-5">
          <mxGeometry relative="1" as="geometry" />
        </mxCell>
        <mxCell id="OVW3ecKFrReb0WnxIGpc-33" style="edgeStyle=orthogonalEdgeStyle;rounded=0;orthogonalLoop=1;jettySize=auto;html=1;entryX=0.345;entryY=0.059;entryDx=0;entryDy=0;entryPerimeter=0;" edge="1" parent="1" source="OVW3ecKFrReb0WnxIGpc-31" target="OVW3ecKFrReb0WnxIGpc-3">
          <mxGeometry relative="1" as="geometry" />
        </mxCell>
        <mxCell id="OVW3ecKFrReb0WnxIGpc-39" value="" style="edgeStyle=orthogonalEdgeStyle;rounded=0;orthogonalLoop=1;jettySize=auto;html=1;entryX=0.5;entryY=0;entryDx=0;entryDy=0;entryPerimeter=0;curved=1;" edge="1" parent="1" source="OVW3ecKFrReb0WnxIGpc-37" target="OVW3ecKFrReb0WnxIGpc-8">
          <mxGeometry relative="1" as="geometry">
            <mxPoint x="1091" y="170" as="targetPoint" />
          </mxGeometry>
        </mxCell>
        <mxCell id="OVW3ecKFrReb0WnxIGpc-37" value="" style="html=1;verticalLabelPosition=bottom;align=center;labelBackgroundColor=#ffffff;verticalAlign=top;strokeWidth=2;strokeColor=#0080F0;shadow=0;dashed=0;shape=mxgraph.ios7.icons.user;" vertex="1" parent="1">
          <mxGeometry x="790" y="-150" width="80" height="80" as="geometry" />
        </mxCell>
        <mxCell id="OVW3ecKFrReb0WnxIGpc-41" style="edgeStyle=orthogonalEdgeStyle;rounded=0;orthogonalLoop=1;jettySize=auto;html=1;exitX=1;exitY=0.75;exitDx=0;exitDy=0;entryX=0;entryY=0.5;entryDx=0;entryDy=0;curved=1;" edge="1" parent="1" source="_accsSYRUymLjPcQeyw_-4" target="OVW3ecKFrReb0WnxIGpc-27">
          <mxGeometry relative="1" as="geometry" />
        </mxCell>
        <mxCell id="OVW3ecKFrReb0WnxIGpc-42" value="" style="image;aspect=fixed;html=1;points=[];align=center;fontSize=12;image=img/lib/azure2/networking/Virtual_Networks.svg;" vertex="1" parent="1">
          <mxGeometry x="1026.5" y="360" width="67" height="40" as="geometry" />
        </mxCell>
        <mxCell id="OVW3ecKFrReb0WnxIGpc-43" value="&lt;font style=&quot;font-size: 18px;&quot;&gt;Hub&lt;/font&gt;" style="text;html=1;align=center;verticalAlign=middle;resizable=0;points=[];autosize=1;strokeColor=none;fillColor=none;" vertex="1" parent="1">
          <mxGeometry x="1030" y="317" width="60" height="30" as="geometry" />
        </mxCell>
        <mxCell id="OVW3ecKFrReb0WnxIGpc-44" value="" style="image;aspect=fixed;html=1;points=[];align=center;fontSize=12;image=img/lib/azure2/networking/Bastions.svg;" vertex="1" parent="1">
          <mxGeometry x="1036" y="456" width="57.99999999999999" height="68" as="geometry" />
        </mxCell>
        <mxCell id="OVW3ecKFrReb0WnxIGpc-47" value="&lt;hr&gt;" style="rounded=0;whiteSpace=wrap;html=1;glass=0;dashed=1;dashPattern=8 8;fontStyle=1" vertex="1" parent="1">
          <mxGeometry x="1710" y="440" width="720" height="460" as="geometry" />
        </mxCell>
        <mxCell id="OVW3ecKFrReb0WnxIGpc-48" value="" style="outlineConnect=0;dashed=0;verticalLabelPosition=bottom;verticalAlign=top;align=center;html=1;shape=mxgraph.aws3.virtual_private_cloud;fillColor=#F58534;gradientColor=none;" vertex="1" parent="1">
          <mxGeometry x="1720" y="400" width="79.5" height="54" as="geometry" />
        </mxCell>
        <mxCell id="OVW3ecKFrReb0WnxIGpc-57" style="edgeStyle=orthogonalEdgeStyle;rounded=0;orthogonalLoop=1;jettySize=auto;html=1;" edge="1" parent="1" source="OVW3ecKFrReb0WnxIGpc-49" target="OVW3ecKFrReb0WnxIGpc-50">
          <mxGeometry relative="1" as="geometry" />
        </mxCell>
        <mxCell id="OVW3ecKFrReb0WnxIGpc-49" value="" style="outlineConnect=0;dashed=0;verticalLabelPosition=bottom;verticalAlign=top;align=center;html=1;shape=mxgraph.aws3.application_load_balancer;fillColor=#F58534;gradientColor=none;" vertex="1" parent="1">
          <mxGeometry x="2040" y="480" width="69" height="72" as="geometry" />
        </mxCell>
        <mxCell id="OVW3ecKFrReb0WnxIGpc-50" value="&lt;font style=&quot;font-size: 12px;&quot;&gt;AWS Auto Scaling&lt;/font&gt;" style="sketch=0;outlineConnect=0;fontColor=#232F3E;gradientColor=none;strokeColor=#ffffff;fillColor=#232F3E;dashed=0;verticalLabelPosition=middle;verticalAlign=bottom;align=center;html=1;whiteSpace=wrap;fontSize=10;fontStyle=1;spacing=3;shape=mxgraph.aws4.productIcon;prIcon=mxgraph.aws4.autoscaling;" vertex="1" parent="1">
          <mxGeometry x="2034.5" y="604" width="80" height="110" as="geometry" />
        </mxCell>
        <mxCell id="OVW3ecKFrReb0WnxIGpc-51" value="" style="sketch=0;outlineConnect=0;fontColor=#232F3E;gradientColor=none;fillColor=#7AA116;strokeColor=none;dashed=0;verticalLabelPosition=bottom;verticalAlign=top;align=center;html=1;fontSize=12;fontStyle=0;aspect=fixed;pointerEvents=1;shape=mxgraph.aws4.bucket;" vertex="1" parent="1">
          <mxGeometry x="2200" y="1001" width="105" height="109.2" as="geometry" />
        </mxCell>
        <mxCell id="OVW3ecKFrReb0WnxIGpc-52" value="&lt;font style=&quot;font-size: 18px;&quot;&gt;Amazon RDS&lt;/font&gt;" style="sketch=0;outlineConnect=0;fontColor=#232F3E;gradientColor=none;strokeColor=#ffffff;fillColor=#232F3E;dashed=0;verticalLabelPosition=middle;verticalAlign=bottom;align=center;html=1;whiteSpace=wrap;fontSize=10;fontStyle=1;spacing=3;shape=mxgraph.aws4.productIcon;prIcon=mxgraph.aws4.rds;" vertex="1" parent="1">
          <mxGeometry x="1820" y="992" width="130" height="160" as="geometry" />
        </mxCell>
        <mxCell id="OVW3ecKFrReb0WnxIGpc-56" style="edgeStyle=orthogonalEdgeStyle;rounded=0;orthogonalLoop=1;jettySize=auto;html=1;exitX=0.5;exitY=1;exitDx=0;exitDy=0;exitPerimeter=0;" edge="1" parent="1" source="OVW3ecKFrReb0WnxIGpc-53" target="OVW3ecKFrReb0WnxIGpc-51">
          <mxGeometry relative="1" as="geometry" />
        </mxCell>
        <mxCell id="OVW3ecKFrReb0WnxIGpc-53" value="" style="sketch=0;points=[[0,0,0],[0.25,0,0],[0.5,0,0],[0.75,0,0],[1,0,0],[0,1,0],[0.25,1,0],[0.5,1,0],[0.75,1,0],[1,1,0],[0,0.25,0],[0,0.5,0],[0,0.75,0],[1,0.25,0],[1,0.5,0],[1,0.75,0]];outlineConnect=0;fontColor=#232F3E;fillColor=#8C4FFF;strokeColor=#ffffff;dashed=0;verticalLabelPosition=bottom;verticalAlign=top;align=center;html=1;fontSize=12;fontStyle=0;aspect=fixed;shape=mxgraph.aws4.resourceIcon;resIcon=mxgraph.aws4.vpc_privatelink;" vertex="1" parent="1">
          <mxGeometry x="2130" y="790" width="80" height="80" as="geometry" />
        </mxCell>
        <mxCell id="OVW3ecKFrReb0WnxIGpc-55" style="edgeStyle=orthogonalEdgeStyle;rounded=0;orthogonalLoop=1;jettySize=auto;html=1;" edge="1" parent="1" source="OVW3ecKFrReb0WnxIGpc-54" target="OVW3ecKFrReb0WnxIGpc-52">
          <mxGeometry relative="1" as="geometry" />
        </mxCell>
        <mxCell id="OVW3ecKFrReb0WnxIGpc-54" value="" style="sketch=0;points=[[0,0,0],[0.25,0,0],[0.5,0,0],[0.75,0,0],[1,0,0],[0,1,0],[0.25,1,0],[0.5,1,0],[0.75,1,0],[1,1,0],[0,0.25,0],[0,0.5,0],[0,0.75,0],[1,0.25,0],[1,0.5,0],[1,0.75,0]];outlineConnect=0;fontColor=#232F3E;fillColor=#8C4FFF;strokeColor=#ffffff;dashed=0;verticalLabelPosition=bottom;verticalAlign=top;align=center;html=1;fontSize=12;fontStyle=0;aspect=fixed;shape=mxgraph.aws4.resourceIcon;resIcon=mxgraph.aws4.vpc_privatelink;" vertex="1" parent="1">
          <mxGeometry x="1940" y="790" width="78" height="78" as="geometry" />
        </mxCell>
        <mxCell id="OVW3ecKFrReb0WnxIGpc-45" style="edgeStyle=orthogonalEdgeStyle;rounded=0;orthogonalLoop=1;jettySize=auto;html=1;entryX=0.5;entryY=0;entryDx=0;entryDy=0;entryPerimeter=0;curved=1;" edge="1" parent="1" source="OVW3ecKFrReb0WnxIGpc-8" target="OVW3ecKFrReb0WnxIGpc-49">
          <mxGeometry relative="1" as="geometry">
            <mxPoint x="1640" y="310" as="targetPoint" />
          </mxGeometry>
        </mxCell>
        <mxCell id="OVW3ecKFrReb0WnxIGpc-60" style="edgeStyle=orthogonalEdgeStyle;rounded=0;orthogonalLoop=1;jettySize=auto;html=1;entryX=0;entryY=0.5;entryDx=0;entryDy=0;curved=1;" edge="1" parent="1" source="OVW3ecKFrReb0WnxIGpc-59" target="OVW3ecKFrReb0WnxIGpc-47">
          <mxGeometry relative="1" as="geometry" />
        </mxCell>
        <mxCell id="OVW3ecKFrReb0WnxIGpc-59" value="&lt;hr&gt;" style="rounded=0;whiteSpace=wrap;html=1;glass=0;dashed=1;dashPattern=8 8;fontStyle=1" vertex="1" parent="1">
          <mxGeometry x="1350" y="380" width="190" height="793" as="geometry" />
        </mxCell>
        <mxCell id="OVW3ecKFrReb0WnxIGpc-61" value="" style="outlineConnect=0;dashed=0;verticalLabelPosition=bottom;verticalAlign=top;align=center;html=1;shape=mxgraph.aws3.virtual_private_cloud;fillColor=#F58534;gradientColor=none;" vertex="1" parent="1">
          <mxGeometry x="1405.25" y="346" width="79.5" height="54" as="geometry" />
        </mxCell>
        <mxCell id="OVW3ecKFrReb0WnxIGpc-62" value="AWS Firewall Manager" style="sketch=0;outlineConnect=0;fontColor=#232F3E;gradientColor=none;strokeColor=#ffffff;fillColor=#232F3E;dashed=0;verticalLabelPosition=middle;verticalAlign=bottom;align=center;html=1;whiteSpace=wrap;fontSize=10;fontStyle=1;spacing=3;shape=mxgraph.aws4.productIcon;prIcon=mxgraph.aws4.firewall_manager;" vertex="1" parent="1">
          <mxGeometry x="1405" y="695" width="80" height="110" as="geometry" />
        </mxCell>
        <mxCell id="OVW3ecKFrReb0WnxIGpc-63" value="" style="outlineConnect=0;dashed=0;verticalLabelPosition=bottom;verticalAlign=top;align=center;html=1;shape=mxgraph.aws3.vpn_gateway;fillColor=#F58534;gradientColor=none;" vertex="1" parent="1">
          <mxGeometry x="1416" y="921" width="69" height="72" as="geometry" />
        </mxCell>
      </root>
    </mxGraphModel>
  </diagram>
</mxfile>
